<svg xmlns="http://www.w3.org/2000/svg" width="120" height="41" viewBox="0 0 120 41">
    <g fill="none" fill-rule="evenodd">
        <path fill="#FEFEFE" d="M.84 23.693h94.923l.085-22.84H.841z"/>
        <path fill="#242358" d="M11.685 23.981h2.08v-1.786h-.059c-.535.805-1.22 1.403-2.02 1.786"/>
        <path fill="#33296A" d="M64.63 16.145c0 2.007.72 4.379 3.097 4.379 2.376 0 3.127-2.372 3.127-4.379 0-2.005-.751-4.408-3.127-4.408s-3.098 2.403-3.098 4.408zM7.54 15.964c0 2.158.784 4.56 3.128 4.56 2.495 0 3.038-2.402 3.038-4.409 0-2.281-.813-4.378-3.038-4.378-2.344 0-3.127 2.218-3.127 4.227zM24.525 14.503h6.343c-.089-1.764-1.32-3.223-3.035-3.223-1.805 0-3.006 1.308-3.308 3.223z"/>
        <path fill="#33296A" d="M53.653 6.215h5.118v-3.71h-5.118v3.71zM0 0v23.693h6.768c-3.016-1.245-4.335-4.665-4.335-8.202 0-4.105 2.169-7.996 6.593-7.996 1.927 0 3.402.73 4.455 2.158h.061V2.505h5.117v21.188h6.059c-3.243-1.071-5.279-3.84-5.279-7.898 0-4.835 3.823-8.3 8.428-8.3 5.6 0 8.398 4.256 8.159 9.608h-11.47c.09 2.159 1.324 3.587 3.492 3.587 1.234 0 2.44-.577 2.92-1.731h4.786c-.637 2.488-2.396 4.015-4.558 4.734h5.605V2.505h5.118V7.95h2.65V2.505h5.115V7.95h3.163v3.345h-3.163v7.176c0 1.247.725 1.52 1.837 1.52.422 0 .874-.06 1.326-.06v3.762h.806V7.95h5.118v15.743h6.077c-3.203-1.14-5.255-4.137-5.255-7.837 0-4.743 3.37-8.36 8.218-8.36 4.847 0 8.248 3.617 8.248 8.36 0 3.7-2.072 6.698-5.285 7.837h6.036V7.95h4.97v2.159h.057c.934-1.61 3.042-2.614 4.909-2.614 5.207 0 5.63 3.831 5.63 6.11v10.088h3.387V0H0z"/>
        <path fill="#33296A" d="M44.512 18.608v-7.024h-2.647v12.399h5.759c-2.422-.489-3.112-2-3.112-5.375M84.594 12.04c-1.925 0-2.768 1.642-2.768 3.374v8.568h5.324v-7.595c0-2.158.239-4.347-2.556-4.347"/>
        <path fill="#F36E38" d="M65.765 31.287c-.018-.834-.75-1.424-1.557-1.424-1.783 0-2.064 1.538-2.064 2.904 0 1.27.544 2.58 1.895 2.58 1.107 0 1.669-.644 1.82-1.688h3.096c-.283 2.638-2.306 4.156-4.897 4.156-2.928 0-5.104-2.03-5.104-5.048 0-3.13 1.97-5.37 5.104-5.37 2.42 0 4.578 1.29 4.803 3.89M74.225 35.348c1.483 0 1.952-1.48 1.952-2.732 0-1.253-.47-2.75-1.952-2.75s-1.933 1.497-1.933 2.75c0 1.252.451 2.732 1.933 2.732m0-7.95c3.021 0 5.141 2.258 5.141 5.218 0 2.961-2.12 5.2-5.141 5.2-3.022 0-5.122-2.239-5.122-5.2 0-2.96 2.1-5.218 5.122-5.218M79.67 37.529h3.192V23.982H79.67zM83.961 37.529h3.19V23.982h-3.19zM94.757 31.591c-.057-1.1-.825-2.01-1.895-2.01-1.126 0-1.876.815-2.064 2.01h3.959zm-3.959 1.803c.057 1.346.825 2.24 2.176 2.24.77 0 1.52-.361 1.82-1.083h2.984c-.582 2.277-2.664 3.264-4.841 3.264-3.172 0-5.33-1.936-5.33-5.237 0-3.017 2.385-5.18 5.255-5.18 3.49 0 5.234 2.655 5.086 5.996h-7.15zM103.12 29.864c-1.41 0-1.858 1.252-1.858 2.467 0 1.157.525 2.315 1.838 2.315 1.351 0 1.932-1.063 1.932-2.297 0-1.251-.486-2.485-1.912-2.485m4.933 6.47c0 1.613-.299 4.649-4.858 4.649-2.27 0-4.41-.513-4.785-3.15h3.188c.078.437.247.702.546.853.281.153.676.21 1.163.21 1.52 0 1.67-1.082 1.67-2.297v-.93h-.038a3.072 3.072 0 0 1-2.59 1.443c-2.944 0-4.276-2.126-4.276-4.895 0-2.619 1.519-4.82 4.276-4.82 1.165 0 2.045.513 2.609 1.519h.038V27.68h3.057M115.62 31.591c-.057-1.1-.826-2.01-1.897-2.01-1.125 0-1.874.815-2.063 2.01h3.96zm-3.96 1.803c.057 1.346.825 2.24 2.176 2.24.771 0 1.521-.361 1.82-1.083h2.985c-.582 2.277-2.666 3.264-4.842 3.264-3.17 0-5.329-1.936-5.329-5.237 0-3.017 2.383-5.18 5.253-5.18 3.49 0 5.236 2.655 5.087 5.996h-7.15zM99.88 23.986h3.966c1.45-3.27 3.618-6.714 5.505-10.486l-3.272-3.524c-2.543 5.104-5.387 9.699-6.199 14.01M116.166 0c-1.241 4.078-4.117 8.375-6.539 13.211l3.277 3.524c-1.21 2.429-2.486 4.743-3.582 6.963h5.042c.611-1.117 1.228-2.26 1.818-3.437l-3.276-3.524c3.083-6.195 6.447-11.625 6.447-16.737h-3.187zM106.196 9.685c1.709-3.437 3.559-6.64 4.83-9.685H95.764v23.187h.001c-.009-5.227 3.97-10.66 7.156-17.025M118.827 21.6v-7.933c-.613 1.607-1.27 3.274-1.878 5.025"/>
    </g>
</svg>
