<?xml version="1.0" encoding="utf-8"?>
<!-- Generator: Adobe Illustrator 27.2.0, SVG Export Plug-In . SVG Version: 6.00 Build 0)  -->
<svg version="1.2" baseProfile="tiny" id="Laag_1" xmlns="http://www.w3.org/2000/svg" xmlns:xlink="http://www.w3.org/1999/xlink"
	 x="0px" y="0px" viewBox="0 0 108.6 113.2" overflow="visible" xml:space="preserve">
<path fill="#014425" d="M86.9,46.1c0,0-0.7-6.9-1.3-8.7c-0.7-1.8-2.5-4.4-2.5-4.4s6.7-11.4,7-14.5c0.3-3.1,1.6-8,0-10.2
	s-2.3-2.7-3.1-1.3s0.4,6.7,0,9.3s-4.5,11.3-5.1,12.2c-0.5,0.9-2.9,1.6-2.9,1.6s-2.6-1.8-3.4-1.6s-1.7,0.9-1.7,0.9s1.8,0.4,2.4,1.6
	c0.5,1.3,1.1,5.4,1.1,5.4s1.2-0.7,4.1,1.1S86.9,46.1,86.9,46.1z"/>
<path fill="#3E0C29" d="M86,49.8c0,0-3.9,17.1-22.1,28.9S23.7,98.1,11.1,97.9s4.6-8,7.2-9.1S38.9,77,46.3,67.7s23.7-35.1,24.3-36.1
	c0.7-1.1,1.6-1.6,3.3,0c1.7,1.6,2.4,6.5,2.4,6.5s4.8,0.4,6.1,2.2S85.8,46.9,86,49.8z"/>
<path fill="#FFFFFF" d="M66.6,48.2c1.3,0.8-5.1,10.6-8,13.9c-2.9,3.3-16,14-16,14s12-12.7,13.8-16s6.3-11.9,8.3-11.9
	C66.6,48.2,66.6,48.2,66.6,48.2z"/>
</svg>
