<?xml version="1.0" encoding="UTF-8"?><svg id="Laag_1" xmlns="http://www.w3.org/2000/svg" viewBox="0 0 504 504"><rect x="63" width="63" height="63"/><rect x="189" width="63" height="63"/><rect x="315" width="63" height="63"/><rect x="441" width="63" height="63"/><rect y="63" width="63" height="63"/><rect x="126" y="63" width="63" height="63"/><rect x="252" y="63" width="63" height="63"/><rect x="378" y="63" width="63" height="63"/><rect x="63" y="126" width="63" height="63"/><rect x="189" y="126" width="63" height="63"/><rect x="315" y="126" width="63" height="63"/><rect x="441" y="126" width="63" height="63"/><rect y="189" width="63" height="63"/><rect x="126" y="189" width="63" height="63"/><rect x="252" y="189" width="63" height="63"/><rect x="378" y="189" width="63" height="63"/><rect x="63" y="252" width="63" height="63"/><rect x="189" y="252" width="63" height="63"/><rect x="315" y="252" width="63" height="63"/><rect x="441" y="252" width="63" height="63"/><rect y="315" width="63" height="63"/><rect x="126" y="315" width="63" height="63"/><rect x="252" y="315" width="63" height="63"/><rect x="378" y="315" width="63" height="63"/><rect x="63" y="378" width="63" height="63"/><rect x="189" y="378" width="63" height="63"/><rect x="315" y="378" width="63" height="63"/><rect x="441" y="378" width="63" height="63"/><rect y="441" width="63" height="63"/><rect x="126" y="441" width="63" height="63"/><rect x="252" y="441" width="63" height="63"/><rect x="378" y="441" width="63" height="63"/></svg>